<svg width="1151" height="177" viewBox="0 0 1151 177" fill="none" xmlns="http://www.w3.org/2000/svg">
<rect x="-1" width="1152" height="182" fill="white"/>
<path d="M483.605 51H462.395C459.972 51 458 52.9716 458 55.3945V76.6055C458 79.0284 459.972 81 462.395 81H471.242V70.3945H467.727V65.1211H471.242V61.5469C471.242 58.6389 473.608 56.2734 476.516 56.2734H481.848V61.5469H476.516V65.1211H481.848L480.969 70.3945H476.516V81H483.605C486.028 81 488 79.0284 488 76.6055V55.3945C488 52.9716 486.028 51 483.605 51Z" fill="#21243D"/>
<path d="M685.605 51H664.395C661.972 51 660 52.9716 660 55.3945V76.6055C660 79.0284 661.972 81 664.395 81H685.605C688.028 81 690 79.0284 690 76.6055V55.3945C690 52.9716 688.028 51 685.605 51ZM670.605 74.7891H667.09V62.4844H670.605V74.7891ZM670.605 60.7266H667.09V57.2109H670.605V60.7266ZM682.91 74.7891H679.395V67.7578C679.395 66.7887 678.606 66 677.637 66C676.668 66 675.879 66.7887 675.879 67.7578V74.7891H672.363V62.4844H675.879V63.147C676.8 62.8607 677.398 62.4844 678.516 62.4844C680.9 62.4869 682.91 64.6258 682.91 67.1536V74.7891Z" fill="#21243D"/>
<path d="M624.923 54.5515C623.55 55.1538 622.087 55.5531 620.562 55.7469C622.131 54.81 623.328 53.3377 623.892 51.5631C622.428 52.4354 620.813 53.0515 619.092 53.3954C617.702 51.9162 615.722 51 613.562 51C609.372 51 605.998 54.4015 605.998 58.5715C605.998 59.1715 606.048 59.7485 606.173 60.2977C599.88 59.9908 594.312 56.9746 590.571 52.38C589.918 53.5131 589.535 54.81 589.535 56.2062C589.535 58.8277 590.885 61.1515 592.897 62.4969C591.681 62.4738 590.488 62.1208 589.477 61.5646C589.477 61.5877 589.477 61.6177 589.477 61.6477C589.477 65.3262 592.101 68.3815 595.542 69.0854C594.925 69.2538 594.254 69.3346 593.557 69.3346C593.072 69.3346 592.583 69.3069 592.124 69.2054C593.105 72.2031 595.888 74.4069 599.197 74.4785C596.622 76.4931 593.352 77.7069 589.812 77.7069C589.191 77.7069 588.595 77.6792 588 77.6031C591.353 79.7654 595.327 81 599.612 81C613.542 81 621.157 69.4615 621.157 59.46C621.157 59.1254 621.145 58.8023 621.129 58.4815C622.632 57.4154 623.894 56.0838 624.923 54.5515Z" fill="#21243D"/>
<path d="M544.721 51H531.279C526.714 51 523 54.714 523 59.2789V72.7211C523 77.2862 526.714 81 531.279 81H544.721C549.286 81 553 77.286 553 72.7211V59.2789C553 54.714 549.286 51 544.721 51ZM550.338 72.7211C550.338 75.8185 547.818 78.3383 544.721 78.3383H531.279C528.182 78.3384 525.662 75.8185 525.662 72.7211V59.2789C525.662 56.1817 528.182 53.6617 531.279 53.6617H544.721C547.818 53.6617 550.338 56.1817 550.338 59.2789V72.7211H550.338Z" fill="#21243D"/>
<path d="M538 58.2701C533.737 58.2701 530.27 61.7379 530.27 66.0004C530.27 70.2627 533.737 73.7303 538 73.7303C542.263 73.7303 545.73 70.2627 545.73 66.0004C545.73 61.7379 542.263 58.2701 538 58.2701ZM538 71.0683C535.205 71.0683 532.932 68.7949 532.932 66.0002C532.932 63.2054 535.205 60.9317 538 60.9317C540.795 60.9317 543.069 63.2054 543.069 66.0002C543.069 68.7949 540.795 71.0683 538 71.0683Z" fill="#21243D"/>
<path d="M546.054 56.0132C545.542 56.0132 545.038 56.2208 544.676 56.5846C544.312 56.9466 544.103 57.4505 544.103 57.9651C544.103 58.4781 544.312 58.9819 544.676 59.3457C545.038 59.7077 545.542 59.9171 546.054 59.9171C546.569 59.9171 547.071 59.7077 547.435 59.3457C547.799 58.9819 548.006 58.478 548.006 57.9651C548.006 57.4505 547.799 56.9466 547.435 56.5846C547.073 56.2208 546.569 56.0132 546.054 56.0132Z" fill="#21243D"/>
<path d="M471.659 118.842C471.591 119.466 471.411 120.029 471.119 120.53C470.827 121.027 470.415 121.419 469.882 121.706C469.349 121.993 468.681 122.137 467.879 122.137C467.1 122.137 466.418 121.948 465.835 121.569C465.252 121.187 464.798 120.649 464.475 119.956C464.151 119.263 463.989 118.454 463.989 117.529V116.524C463.989 115.595 464.151 114.786 464.475 114.098C464.803 113.405 465.268 112.867 465.869 112.484C466.471 112.102 467.182 111.91 468.002 111.91C468.754 111.91 469.39 112.051 469.909 112.334C470.429 112.612 470.832 113.002 471.119 113.503C471.411 114.004 471.591 114.583 471.659 115.239H470.333C470.233 114.542 470.009 113.993 469.663 113.592C469.321 113.186 468.768 112.983 468.002 112.983C467.414 112.983 466.922 113.132 466.525 113.428C466.129 113.719 465.828 114.13 465.623 114.658C465.423 115.187 465.322 115.804 465.322 116.511V117.529C465.322 118.181 465.413 118.776 465.596 119.313C465.778 119.847 466.056 120.273 466.43 120.592C466.808 120.911 467.291 121.07 467.879 121.07C468.439 121.07 468.884 120.981 469.212 120.804C469.545 120.626 469.795 120.371 469.964 120.038C470.137 119.705 470.26 119.307 470.333 118.842H471.659ZM472.924 118.227C472.924 117.511 473.061 116.871 473.334 116.306C473.607 115.741 473.995 115.294 474.496 114.966C474.997 114.633 475.592 114.467 476.28 114.467C476.978 114.467 477.579 114.633 478.085 114.966C478.591 115.294 478.978 115.741 479.247 116.306C479.521 116.871 479.657 117.511 479.657 118.227V118.384C479.657 119.095 479.521 119.735 479.247 120.305C478.978 120.87 478.591 121.316 478.085 121.645C477.584 121.973 476.987 122.137 476.294 122.137C475.601 122.137 475.002 121.973 474.496 121.645C473.995 121.316 473.607 120.87 473.334 120.305C473.061 119.735 472.924 119.095 472.924 118.384V118.227ZM474.202 118.384C474.202 118.871 474.28 119.323 474.435 119.737C474.59 120.152 474.82 120.485 475.125 120.735C475.435 120.986 475.825 121.111 476.294 121.111C476.759 121.111 477.144 120.986 477.449 120.735C477.759 120.485 477.992 120.152 478.146 119.737C478.301 119.323 478.379 118.871 478.379 118.384V118.227C478.379 117.739 478.301 117.288 478.146 116.873C477.992 116.458 477.759 116.126 477.449 115.875C477.139 115.62 476.75 115.492 476.28 115.492C475.82 115.492 475.435 115.62 475.125 115.875C474.815 116.126 474.583 116.458 474.428 116.873C474.277 117.288 474.202 117.739 474.202 118.227V118.384ZM482.528 124.844H481.25V114.604H482.412L482.528 116.025V124.844ZM487.505 118.384C487.505 119.104 487.393 119.746 487.17 120.312C486.947 120.877 486.621 121.323 486.192 121.651C485.769 121.975 485.251 122.137 484.641 122.137C484.007 122.137 483.476 122 483.048 121.727C482.619 121.453 482.285 121.066 482.043 120.564C481.801 120.059 481.644 119.462 481.571 118.773V117.98C481.644 117.256 481.801 116.632 482.043 116.107C482.289 115.583 482.624 115.18 483.048 114.897C483.476 114.61 484 114.467 484.62 114.467C485.24 114.467 485.764 114.624 486.192 114.938C486.621 115.253 486.947 115.695 487.17 116.265C487.393 116.83 487.505 117.488 487.505 118.24V118.384ZM486.227 118.24C486.227 117.748 486.156 117.297 486.015 116.887C485.878 116.472 485.661 116.142 485.365 115.896C485.074 115.649 484.698 115.526 484.237 115.526C483.923 115.526 483.649 115.581 483.417 115.69C483.185 115.8 482.986 115.948 482.822 116.135C482.658 116.317 482.524 116.527 482.419 116.764C482.319 116.996 482.243 117.238 482.193 117.488V119.272C482.285 119.591 482.41 119.892 482.569 120.175C482.733 120.453 482.95 120.678 483.219 120.852C483.492 121.025 483.836 121.111 484.251 121.111C484.707 121.111 485.08 120.986 485.372 120.735C485.664 120.485 485.878 120.154 486.015 119.744C486.156 119.329 486.227 118.876 486.227 118.384V118.24ZM493.247 114.604H494.607L491.641 123.142C491.572 123.324 491.481 123.52 491.367 123.729C491.258 123.944 491.117 124.146 490.943 124.338C490.775 124.529 490.567 124.684 490.321 124.803C490.075 124.926 489.784 124.987 489.446 124.987C489.378 124.987 489.296 124.98 489.2 124.967C489.104 124.953 489.013 124.937 488.927 124.919C488.84 124.905 488.774 124.892 488.729 124.878V123.859C488.765 123.864 488.822 123.871 488.899 123.88C488.981 123.889 489.038 123.894 489.07 123.894C489.499 123.894 489.834 123.805 490.075 123.627C490.317 123.449 490.513 123.132 490.663 122.677L491.189 121.234L493.247 114.604ZM491.606 120.353L491.935 121.686L491.019 122.144L488.305 114.604H489.699L491.606 120.353ZM497.021 122H495.742V114.604H496.986L497.021 115.766V122ZM499.324 115.731C499.215 115.709 499.112 115.695 499.017 115.69C498.925 115.681 498.821 115.677 498.702 115.677C498.315 115.677 497.987 115.757 497.718 115.916C497.453 116.076 497.248 116.297 497.103 116.579C496.957 116.857 496.866 117.176 496.829 117.536L496.467 117.741C496.467 117.144 496.547 116.6 496.706 116.107C496.866 115.611 497.114 115.214 497.451 114.918C497.793 114.617 498.23 114.467 498.764 114.467C498.85 114.467 498.953 114.478 499.071 114.501C499.194 114.519 499.279 114.54 499.324 114.562V115.731ZM501.874 122H500.596V114.604H501.874V122ZM500.5 112.635C500.5 112.434 500.562 112.263 500.685 112.122C500.812 111.981 500.999 111.91 501.245 111.91C501.491 111.91 501.678 111.981 501.806 112.122C501.938 112.263 502.004 112.434 502.004 112.635C502.004 112.831 501.938 112.999 501.806 113.141C501.678 113.277 501.491 113.346 501.245 113.346C500.999 113.346 500.812 113.277 500.685 113.141C500.562 112.999 500.5 112.831 500.5 112.635ZM509.845 114.604V121.843C509.845 122.494 509.71 123.05 509.441 123.511C509.177 123.971 508.808 124.32 508.334 124.557C507.865 124.798 507.322 124.919 506.707 124.919C506.452 124.919 506.151 124.878 505.805 124.796C505.463 124.718 505.126 124.584 504.793 124.393C504.465 124.206 504.189 123.953 503.966 123.634L504.629 122.889C504.939 123.262 505.262 123.522 505.6 123.668C505.941 123.818 506.279 123.894 506.611 123.894C507.208 123.894 507.682 123.723 508.033 123.381C508.389 123.044 508.566 122.551 508.566 121.904V116.23L508.683 114.604H509.845ZM503.59 118.24C503.59 117.488 503.708 116.83 503.945 116.265C504.182 115.695 504.52 115.253 504.957 114.938C505.395 114.624 505.914 114.467 506.516 114.467C506.98 114.467 507.386 114.549 507.732 114.713C508.083 114.872 508.38 115.105 508.621 115.41C508.867 115.715 509.061 116.085 509.202 116.518C509.348 116.951 509.448 117.438 509.503 117.98V118.644C509.435 119.359 509.282 119.979 509.045 120.503C508.812 121.022 508.487 121.426 508.067 121.713C507.648 121.995 507.126 122.137 506.502 122.137C505.91 122.137 505.395 121.975 504.957 121.651C504.524 121.323 504.187 120.877 503.945 120.312C503.708 119.746 503.59 119.104 503.59 118.384V118.24ZM504.868 118.384C504.868 118.876 504.934 119.325 505.066 119.73C505.203 120.136 505.415 120.462 505.702 120.708C505.989 120.95 506.361 121.07 506.816 121.07C507.236 121.07 507.58 120.981 507.849 120.804C508.118 120.626 508.334 120.391 508.498 120.1C508.662 119.808 508.79 119.491 508.881 119.149V117.488C508.826 117.238 508.749 116.996 508.648 116.764C508.548 116.527 508.416 116.317 508.252 116.135C508.088 115.948 507.887 115.8 507.65 115.69C507.418 115.581 507.145 115.526 506.83 115.526C506.37 115.526 505.994 115.649 505.702 115.896C505.415 116.142 505.203 116.472 505.066 116.887C504.934 117.297 504.868 117.748 504.868 118.24V118.384ZM513.03 122H511.752V111.5H513.03V122ZM512.196 117.994C512.205 117.32 512.335 116.718 512.586 116.189C512.837 115.656 513.185 115.237 513.632 114.932C514.083 114.622 514.607 114.467 515.204 114.467C515.692 114.467 516.111 114.558 516.462 114.74C516.817 114.918 517.091 115.203 517.282 115.595C517.478 115.987 517.576 116.506 517.576 117.153V122H516.298V117.14C516.298 116.752 516.241 116.44 516.127 116.203C516.018 115.966 515.854 115.795 515.635 115.69C515.416 115.581 515.147 115.526 514.828 115.526C514.514 115.526 514.229 115.592 513.974 115.725C513.718 115.857 513.497 116.039 513.311 116.271C513.124 116.504 512.98 116.771 512.88 117.071C512.78 117.368 512.729 117.682 512.729 118.015L512.196 117.994ZM522.573 115.567H518.567V114.604H522.573V115.567ZM521.192 112.806V120.168C521.192 120.423 521.231 120.615 521.309 120.742C521.386 120.87 521.486 120.954 521.609 120.995C521.732 121.036 521.865 121.057 522.006 121.057C522.111 121.057 522.22 121.048 522.334 121.029C522.452 121.011 522.539 120.995 522.594 120.981L522.601 122C522.5 122.032 522.368 122.062 522.204 122.089C522.045 122.121 521.851 122.137 521.623 122.137C521.313 122.137 521.028 122.075 520.769 121.952C520.509 121.829 520.301 121.624 520.146 121.337C519.992 121.045 519.914 120.653 519.914 120.161V112.806H521.192ZM534.208 117.912C534.208 118.628 534.005 119.165 533.6 119.525C533.194 119.881 532.643 120.059 531.945 120.059C531.216 120.059 530.637 119.815 530.209 119.327C529.785 118.835 529.573 118.197 529.573 117.413V116.627C529.573 115.843 529.785 115.207 530.209 114.72C530.637 114.228 531.216 113.981 531.945 113.981C532.643 113.981 533.194 114.159 533.6 114.515C534.01 114.87 534.215 115.406 534.215 116.121H533.217C533.217 115.67 533.107 115.346 532.889 115.15C532.674 114.95 532.36 114.85 531.945 114.85C531.645 114.85 531.392 114.927 531.187 115.082C530.981 115.232 530.826 115.44 530.722 115.704C530.617 115.968 530.564 116.274 530.564 116.62V117.413C530.564 117.937 530.681 118.363 530.913 118.691C531.15 119.02 531.494 119.184 531.945 119.184C532.36 119.184 532.674 119.088 532.889 118.896C533.103 118.701 533.21 118.372 533.21 117.912H534.208ZM527.974 117.017C527.974 117.623 528.078 118.188 528.288 118.712C528.498 119.236 528.789 119.694 529.163 120.086C529.537 120.478 529.967 120.783 530.455 121.002C530.947 121.221 531.474 121.33 532.034 121.33C532.595 121.33 533.119 121.221 533.606 121.002C534.099 120.783 534.529 120.478 534.898 120.086C535.272 119.694 535.564 119.236 535.773 118.712C535.983 118.188 536.088 117.623 536.088 117.017C536.088 116.406 535.983 115.841 535.773 115.321C535.564 114.802 535.272 114.348 534.898 113.961C534.529 113.569 534.099 113.266 533.606 113.052C533.119 112.833 532.595 112.724 532.034 112.724C531.474 112.724 530.947 112.833 530.455 113.052C529.967 113.266 529.537 113.569 529.163 113.961C528.789 114.348 528.498 114.802 528.288 115.321C528.078 115.841 527.974 116.406 527.974 117.017ZM527.181 117.017C527.181 116.292 527.306 115.62 527.557 115C527.807 114.38 528.156 113.84 528.603 113.38C529.049 112.915 529.564 112.555 530.147 112.3C530.735 112.04 531.364 111.91 532.034 111.91C532.704 111.91 533.331 112.04 533.914 112.3C534.502 112.555 535.017 112.915 535.459 113.38C535.906 113.84 536.254 114.38 536.505 115C536.756 115.62 536.881 116.292 536.881 117.017C536.881 117.741 536.756 118.413 536.505 119.033C536.254 119.653 535.906 120.198 535.459 120.667C535.017 121.132 534.502 121.494 533.914 121.754C533.331 122.014 532.704 122.144 532.034 122.144C531.364 122.144 530.735 122.014 530.147 121.754C529.564 121.494 529.049 121.132 528.603 120.667C528.156 120.198 527.807 119.653 527.557 119.033C527.306 118.413 527.181 117.741 527.181 117.017ZM544.92 122H538.392V121.098L541.652 117.468C542.058 117.021 542.37 116.643 542.589 116.333C542.812 116.019 542.967 115.736 543.054 115.485C543.14 115.235 543.184 114.979 543.184 114.72C543.184 114.228 543.033 113.808 542.732 113.462C542.436 113.111 542.012 112.936 541.461 112.936C541.014 112.936 540.643 113.022 540.347 113.195C540.055 113.368 539.836 113.608 539.69 113.913C539.549 114.218 539.479 114.572 539.479 114.973H538.2C538.2 114.412 538.323 113.899 538.569 113.435C538.815 112.97 539.18 112.601 539.663 112.327C540.151 112.049 540.75 111.91 541.461 111.91C542.4 111.91 543.133 112.154 543.662 112.642C544.195 113.129 544.462 113.772 544.462 114.569C544.462 114.961 544.378 115.355 544.209 115.752C544.04 116.148 543.815 116.543 543.532 116.935C543.25 117.322 542.938 117.7 542.596 118.069L539.93 120.975H544.92V122ZM552.515 117.755C552.515 118.835 552.387 119.696 552.132 120.339C551.881 120.977 551.521 121.437 551.052 121.72C550.582 121.998 550.026 122.137 549.384 122.137C548.75 122.137 548.197 121.998 547.723 121.72C547.249 121.437 546.88 120.977 546.615 120.339C546.355 119.696 546.226 118.835 546.226 117.755V116.23C546.226 115.146 546.353 114.289 546.608 113.66C546.868 113.031 547.233 112.582 547.702 112.313C548.176 112.045 548.732 111.91 549.37 111.91C550.013 111.91 550.569 112.045 551.038 112.313C551.507 112.582 551.87 113.031 552.125 113.66C552.385 114.289 552.515 115.146 552.515 116.23V117.755ZM551.236 116.019C551.236 115.271 551.166 114.672 551.024 114.221C550.883 113.77 550.674 113.444 550.396 113.243C550.118 113.038 549.776 112.936 549.37 112.936C548.969 112.936 548.63 113.038 548.352 113.243C548.074 113.444 547.862 113.77 547.716 114.221C547.575 114.672 547.504 115.271 547.504 116.019V117.953C547.504 118.696 547.577 119.3 547.723 119.765C547.868 120.229 548.08 120.571 548.358 120.79C548.641 121.004 548.983 121.111 549.384 121.111C549.794 121.111 550.136 121.004 550.409 120.79C550.683 120.571 550.888 120.229 551.024 119.765C551.166 119.3 551.236 118.696 551.236 117.953V116.019ZM560.67 122H554.142V121.098L557.402 117.468C557.808 117.021 558.12 116.643 558.339 116.333C558.562 116.019 558.717 115.736 558.804 115.485C558.89 115.235 558.934 114.979 558.934 114.72C558.934 114.228 558.783 113.808 558.482 113.462C558.186 113.111 557.762 112.936 557.211 112.936C556.764 112.936 556.393 113.022 556.097 113.195C555.805 113.368 555.586 113.608 555.44 113.913C555.299 114.218 555.229 114.572 555.229 114.973H553.95C553.95 114.412 554.073 113.899 554.319 113.435C554.565 112.97 554.93 112.601 555.413 112.327C555.901 112.049 556.5 111.91 557.211 111.91C558.15 111.91 558.883 112.154 559.412 112.642C559.945 113.129 560.212 113.772 560.212 114.569C560.212 114.961 560.128 115.355 559.959 115.752C559.79 116.148 559.565 116.543 559.282 116.935C559 117.322 558.688 117.7 558.346 118.069L555.68 120.975H560.67V122ZM568.265 117.755C568.265 118.835 568.137 119.696 567.882 120.339C567.631 120.977 567.271 121.437 566.802 121.72C566.332 121.998 565.776 122.137 565.134 122.137C564.5 122.137 563.947 121.998 563.473 121.72C562.999 121.437 562.63 120.977 562.365 120.339C562.105 119.696 561.976 118.835 561.976 117.755V116.23C561.976 115.146 562.103 114.289 562.358 113.66C562.618 113.031 562.983 112.582 563.452 112.313C563.926 112.045 564.482 111.91 565.12 111.91C565.763 111.91 566.319 112.045 566.788 112.313C567.257 112.582 567.62 113.031 567.875 113.66C568.135 114.289 568.265 115.146 568.265 116.23V117.755ZM566.986 116.019C566.986 115.271 566.916 114.672 566.774 114.221C566.633 113.77 566.424 113.444 566.146 113.243C565.868 113.038 565.526 112.936 565.12 112.936C564.719 112.936 564.38 113.038 564.102 113.243C563.824 113.444 563.612 113.77 563.466 114.221C563.325 114.672 563.254 115.271 563.254 116.019V117.953C563.254 118.696 563.327 119.3 563.473 119.765C563.618 120.229 563.83 120.571 564.108 120.79C564.391 121.004 564.733 121.111 565.134 121.111C565.544 121.111 565.886 121.004 566.159 120.79C566.433 120.571 566.638 120.229 566.774 119.765C566.916 119.3 566.986 118.696 566.986 117.953V116.019ZM574.096 122H572.729L576.529 112.047H577.404L577.384 112.922L574.096 122ZM576.837 112.922L576.823 112.047H577.691L581.499 122H580.139L576.837 112.922ZM579.975 119.396H574.376V118.322H579.975V119.396ZM584.028 122H582.75V111.5H584.028V122ZM587.433 122H586.154V111.5H587.433V122ZM594.2 122H592.922V114.604H594.166L594.2 115.766V122ZM596.504 115.731C596.395 115.709 596.292 115.695 596.196 115.69C596.105 115.681 596 115.677 595.882 115.677C595.494 115.677 595.166 115.757 594.897 115.916C594.633 116.076 594.428 116.297 594.282 116.579C594.136 116.857 594.045 117.176 594.009 117.536L593.646 117.741C593.646 117.144 593.726 116.6 593.886 116.107C594.045 115.611 594.294 115.214 594.631 114.918C594.973 114.617 595.41 114.467 595.943 114.467C596.03 114.467 596.132 114.478 596.251 114.501C596.374 114.519 596.458 114.54 596.504 114.562V115.731ZM599.054 122H597.775V114.604H599.054V122ZM597.68 112.635C597.68 112.434 597.741 112.263 597.864 112.122C597.992 111.981 598.179 111.91 598.425 111.91C598.671 111.91 598.858 111.981 598.985 112.122C599.118 112.263 599.184 112.434 599.184 112.635C599.184 112.831 599.118 112.999 598.985 113.141C598.858 113.277 598.671 113.346 598.425 113.346C598.179 113.346 597.992 113.277 597.864 113.141C597.741 112.999 597.68 112.831 597.68 112.635ZM607.024 114.604V121.843C607.024 122.494 606.89 123.05 606.621 123.511C606.357 123.971 605.988 124.32 605.514 124.557C605.044 124.798 604.502 124.919 603.887 124.919C603.632 124.919 603.331 124.878 602.984 124.796C602.643 124.718 602.305 124.584 601.973 124.393C601.645 124.206 601.369 123.953 601.146 123.634L601.809 122.889C602.118 123.262 602.442 123.522 602.779 123.668C603.121 123.818 603.458 123.894 603.791 123.894C604.388 123.894 604.862 123.723 605.213 123.381C605.568 123.044 605.746 122.551 605.746 121.904V116.23L605.862 114.604H607.024ZM600.77 118.24C600.77 117.488 600.888 116.83 601.125 116.265C601.362 115.695 601.699 115.253 602.137 114.938C602.574 114.624 603.094 114.467 603.695 114.467C604.16 114.467 604.566 114.549 604.912 114.713C605.263 114.872 605.559 115.105 605.801 115.41C606.047 115.715 606.241 116.085 606.382 116.518C606.528 116.951 606.628 117.438 606.683 117.98V118.644C606.614 119.359 606.462 119.979 606.225 120.503C605.992 121.022 605.666 121.426 605.247 121.713C604.828 121.995 604.306 122.137 603.682 122.137C603.089 122.137 602.574 121.975 602.137 121.651C601.704 121.323 601.367 120.877 601.125 120.312C600.888 119.746 600.77 119.104 600.77 118.384V118.24ZM602.048 118.384C602.048 118.876 602.114 119.325 602.246 119.73C602.383 120.136 602.595 120.462 602.882 120.708C603.169 120.95 603.54 121.07 603.996 121.07C604.415 121.07 604.759 120.981 605.028 120.804C605.297 120.626 605.514 120.391 605.678 120.1C605.842 119.808 605.969 119.491 606.061 119.149V117.488C606.006 117.238 605.928 116.996 605.828 116.764C605.728 116.527 605.596 116.317 605.432 116.135C605.268 115.948 605.067 115.8 604.83 115.69C604.598 115.581 604.324 115.526 604.01 115.526C603.549 115.526 603.174 115.649 602.882 115.896C602.595 116.142 602.383 116.472 602.246 116.887C602.114 117.297 602.048 117.748 602.048 118.24V118.384ZM610.21 122H608.932V111.5H610.21V122ZM609.376 117.994C609.385 117.32 609.515 116.718 609.766 116.189C610.016 115.656 610.365 115.237 610.812 114.932C611.263 114.622 611.787 114.467 612.384 114.467C612.871 114.467 613.291 114.558 613.642 114.74C613.997 114.918 614.271 115.203 614.462 115.595C614.658 115.987 614.756 116.506 614.756 117.153V122H613.478V117.14C613.478 116.752 613.421 116.44 613.307 116.203C613.197 115.966 613.033 115.795 612.814 115.69C612.596 115.581 612.327 115.526 612.008 115.526C611.693 115.526 611.409 115.592 611.153 115.725C610.898 115.857 610.677 116.039 610.49 116.271C610.303 116.504 610.16 116.771 610.06 117.071C609.959 117.368 609.909 117.682 609.909 118.015L609.376 117.994ZM619.753 115.567H615.747V114.604H619.753V115.567ZM618.372 112.806V120.168C618.372 120.423 618.411 120.615 618.488 120.742C618.566 120.87 618.666 120.954 618.789 120.995C618.912 121.036 619.044 121.057 619.186 121.057C619.29 121.057 619.4 121.048 619.514 121.029C619.632 121.011 619.719 120.995 619.773 120.981L619.78 122C619.68 122.032 619.548 122.062 619.384 122.089C619.224 122.121 619.031 122.137 618.803 122.137C618.493 122.137 618.208 122.075 617.948 121.952C617.688 121.829 617.481 121.624 617.326 121.337C617.171 121.045 617.094 120.653 617.094 120.161V112.806H618.372ZM625.529 120.038C625.529 119.856 625.488 119.687 625.406 119.532C625.329 119.373 625.169 119.229 624.928 119.102C624.686 118.969 624.322 118.853 623.834 118.753C623.287 118.639 622.813 118.495 622.412 118.322C622.016 118.145 621.708 117.919 621.489 117.646C621.275 117.372 621.168 117.033 621.168 116.627C621.168 116.235 621.28 115.877 621.503 115.554C621.731 115.226 622.05 114.964 622.46 114.768C622.875 114.567 623.358 114.467 623.909 114.467C624.502 114.467 625.007 114.572 625.427 114.781C625.851 114.986 626.174 115.264 626.397 115.615C626.621 115.962 626.732 116.347 626.732 116.771H625.454C625.454 116.465 625.32 116.176 625.051 115.902C624.786 115.629 624.406 115.492 623.909 115.492C623.563 115.492 623.28 115.547 623.062 115.656C622.847 115.761 622.69 115.898 622.59 116.066C622.494 116.23 622.446 116.404 622.446 116.586C622.446 116.768 622.492 116.928 622.583 117.064C622.674 117.197 622.84 117.315 623.082 117.42C623.328 117.525 623.684 117.63 624.148 117.734C624.755 117.871 625.254 118.035 625.646 118.227C626.037 118.418 626.329 118.653 626.521 118.931C626.712 119.209 626.808 119.548 626.808 119.949C626.808 120.378 626.689 120.758 626.452 121.091C626.215 121.419 625.882 121.676 625.454 121.863C625.026 122.046 624.522 122.137 623.943 122.137C623.292 122.137 622.74 122.021 622.289 121.788C621.838 121.556 621.496 121.257 621.264 120.893C621.031 120.523 620.915 120.134 620.915 119.724H622.193C622.216 120.07 622.316 120.346 622.494 120.551C622.676 120.751 622.897 120.895 623.157 120.981C623.422 121.068 623.684 121.111 623.943 121.111C624.29 121.111 624.579 121.066 624.812 120.975C625.049 120.879 625.226 120.751 625.345 120.592C625.468 120.428 625.529 120.243 625.529 120.038ZM633.206 122H631.928V114.604H633.172L633.206 115.766V122ZM635.51 115.731C635.4 115.709 635.298 115.695 635.202 115.69C635.111 115.681 635.006 115.677 634.888 115.677C634.5 115.677 634.172 115.757 633.903 115.916C633.639 116.076 633.434 116.297 633.288 116.579C633.142 116.857 633.051 117.176 633.015 117.536L632.652 117.741C632.652 117.144 632.732 116.6 632.892 116.107C633.051 115.611 633.299 115.214 633.637 114.918C633.979 114.617 634.416 114.467 634.949 114.467C635.036 114.467 635.138 114.478 635.257 114.501C635.38 114.519 635.464 114.54 635.51 114.562V115.731ZM639.748 122.137C639.06 122.137 638.461 121.984 637.95 121.679C637.444 121.369 637.05 120.945 636.768 120.407C636.49 119.869 636.351 119.254 636.351 118.562V118.268C636.351 117.465 636.503 116.782 636.809 116.217C637.118 115.647 637.52 115.214 638.012 114.918C638.508 114.617 639.033 114.467 639.584 114.467C640.295 114.467 640.874 114.626 641.32 114.945C641.771 115.26 642.102 115.69 642.312 116.237C642.526 116.78 642.633 117.395 642.633 118.083V118.65H637.109V117.625H641.354V117.529C641.336 117.201 641.27 116.882 641.156 116.572C641.042 116.258 640.86 116 640.609 115.8C640.359 115.595 640.017 115.492 639.584 115.492C639.201 115.492 638.862 115.602 638.565 115.82C638.274 116.035 638.044 116.349 637.875 116.764C637.711 117.174 637.629 117.675 637.629 118.268V118.562C637.629 119.031 637.715 119.459 637.889 119.847C638.062 120.229 638.312 120.537 638.641 120.77C638.969 120.997 639.361 121.111 639.816 121.111C640.263 121.111 640.641 121.02 640.951 120.838C641.261 120.656 641.532 120.412 641.765 120.106L642.537 120.708C642.3 121.073 641.958 121.403 641.512 121.699C641.07 121.991 640.482 122.137 639.748 122.137ZM648.416 120.038C648.416 119.856 648.375 119.687 648.293 119.532C648.215 119.373 648.056 119.229 647.814 119.102C647.573 118.969 647.208 118.853 646.721 118.753C646.174 118.639 645.7 118.495 645.299 118.322C644.902 118.145 644.595 117.919 644.376 117.646C644.162 117.372 644.055 117.033 644.055 116.627C644.055 116.235 644.166 115.877 644.39 115.554C644.618 115.226 644.937 114.964 645.347 114.768C645.761 114.567 646.244 114.467 646.796 114.467C647.388 114.467 647.894 114.572 648.313 114.781C648.737 114.986 649.061 115.264 649.284 115.615C649.507 115.962 649.619 116.347 649.619 116.771H648.341C648.341 116.465 648.206 116.176 647.938 115.902C647.673 115.629 647.293 115.492 646.796 115.492C646.45 115.492 646.167 115.547 645.948 115.656C645.734 115.761 645.577 115.898 645.477 116.066C645.381 116.23 645.333 116.404 645.333 116.586C645.333 116.768 645.379 116.928 645.47 117.064C645.561 117.197 645.727 117.315 645.969 117.42C646.215 117.525 646.57 117.63 647.035 117.734C647.641 117.871 648.14 118.035 648.532 118.227C648.924 118.418 649.216 118.653 649.407 118.931C649.599 119.209 649.694 119.548 649.694 119.949C649.694 120.378 649.576 120.758 649.339 121.091C649.102 121.419 648.769 121.676 648.341 121.863C647.912 122.046 647.409 122.137 646.83 122.137C646.178 122.137 645.627 122.021 645.176 121.788C644.725 121.556 644.383 121.257 644.15 120.893C643.918 120.523 643.802 120.134 643.802 119.724H645.08C645.103 120.07 645.203 120.346 645.381 120.551C645.563 120.751 645.784 120.895 646.044 120.981C646.308 121.068 646.57 121.111 646.83 121.111C647.176 121.111 647.466 121.066 647.698 120.975C647.935 120.879 648.113 120.751 648.231 120.592C648.354 120.428 648.416 120.243 648.416 120.038ZM654.418 122.137C653.73 122.137 653.131 121.984 652.62 121.679C652.114 121.369 651.72 120.945 651.438 120.407C651.16 119.869 651.021 119.254 651.021 118.562V118.268C651.021 117.465 651.173 116.782 651.479 116.217C651.788 115.647 652.189 115.214 652.682 114.918C653.178 114.617 653.702 114.467 654.254 114.467C654.965 114.467 655.544 114.626 655.99 114.945C656.441 115.26 656.772 115.69 656.981 116.237C657.196 116.78 657.303 117.395 657.303 118.083V118.65H651.779V117.625H656.024V117.529C656.006 117.201 655.94 116.882 655.826 116.572C655.712 116.258 655.53 116 655.279 115.8C655.029 115.595 654.687 115.492 654.254 115.492C653.871 115.492 653.532 115.602 653.235 115.82C652.944 116.035 652.714 116.349 652.545 116.764C652.381 117.174 652.299 117.675 652.299 118.268V118.562C652.299 119.031 652.385 119.459 652.559 119.847C652.732 120.229 652.982 120.537 653.311 120.77C653.639 120.997 654.031 121.111 654.486 121.111C654.933 121.111 655.311 121.02 655.621 120.838C655.931 120.656 656.202 120.412 656.435 120.106L657.207 120.708C656.97 121.073 656.628 121.403 656.182 121.699C655.74 121.991 655.152 122.137 654.418 122.137ZM660.058 122H658.779V114.604H660.023L660.058 115.766V122ZM662.361 115.731C662.252 115.709 662.149 115.695 662.054 115.69C661.963 115.681 661.858 115.677 661.739 115.677C661.352 115.677 661.024 115.757 660.755 115.916C660.491 116.076 660.285 116.297 660.14 116.579C659.994 116.857 659.903 117.176 659.866 117.536L659.504 117.741C659.504 117.144 659.584 116.6 659.743 116.107C659.903 115.611 660.151 115.214 660.488 114.918C660.83 114.617 661.268 114.467 661.801 114.467C661.887 114.467 661.99 114.478 662.108 114.501C662.231 114.519 662.316 114.54 662.361 114.562V115.731ZM667.912 114.604H669.218L666.565 122H665.704L665.902 120.865L667.912 114.604ZM666.299 120.899L666.449 122H665.595L662.915 114.604H664.221L666.299 120.899ZM673.518 122.137C672.829 122.137 672.23 121.984 671.72 121.679C671.214 121.369 670.82 120.945 670.537 120.407C670.259 119.869 670.12 119.254 670.12 118.562V118.268C670.12 117.465 670.273 116.782 670.578 116.217C670.888 115.647 671.289 115.214 671.781 114.918C672.278 114.617 672.802 114.467 673.354 114.467C674.064 114.467 674.643 114.626 675.09 114.945C675.541 115.26 675.871 115.69 676.081 116.237C676.295 116.78 676.402 117.395 676.402 118.083V118.65H670.879V117.625H675.124V117.529C675.106 117.201 675.04 116.882 674.926 116.572C674.812 116.258 674.63 116 674.379 115.8C674.128 115.595 673.786 115.492 673.354 115.492C672.971 115.492 672.631 115.602 672.335 115.82C672.043 116.035 671.813 116.349 671.645 116.764C671.48 117.174 671.398 117.675 671.398 118.268V118.562C671.398 119.031 671.485 119.459 671.658 119.847C671.831 120.229 672.082 120.537 672.41 120.77C672.738 120.997 673.13 121.111 673.586 121.111C674.033 121.111 674.411 121.02 674.721 120.838C675.031 120.656 675.302 120.412 675.534 120.106L676.307 120.708C676.07 121.073 675.728 121.403 675.281 121.699C674.839 121.991 674.251 122.137 673.518 122.137ZM682.541 111.5H683.819V122H682.65L682.541 120.564V111.5ZM677.571 118.24C677.571 117.488 677.692 116.83 677.934 116.265C678.18 115.695 678.521 115.253 678.959 114.938C679.396 114.624 679.909 114.467 680.497 114.467C681.117 114.467 681.634 114.61 682.049 114.897C682.464 115.18 682.787 115.583 683.02 116.107C683.257 116.632 683.409 117.256 683.478 117.98V118.644C683.409 119.359 683.259 119.979 683.026 120.503C682.794 121.022 682.468 121.426 682.049 121.713C681.634 121.995 681.112 122.137 680.483 122.137C679.905 122.137 679.396 121.975 678.959 121.651C678.521 121.323 678.18 120.877 677.934 120.312C677.692 119.746 677.571 119.104 677.571 118.384V118.24ZM678.85 118.384C678.85 118.876 678.916 119.325 679.048 119.73C679.185 120.136 679.396 120.462 679.684 120.708C679.971 120.95 680.342 121.07 680.798 121.07C681.217 121.07 681.561 120.981 681.83 120.804C682.104 120.626 682.322 120.391 682.486 120.1C682.65 119.808 682.778 119.491 682.869 119.149V117.488C682.814 117.238 682.735 116.996 682.63 116.764C682.53 116.527 682.397 116.317 682.233 116.135C682.074 115.948 681.876 115.8 681.639 115.69C681.406 115.581 681.131 115.526 680.812 115.526C680.351 115.526 679.975 115.649 679.684 115.896C679.396 116.142 679.185 116.472 679.048 116.887C678.916 117.297 678.85 117.748 678.85 118.24V118.384Z" fill="#21243D"/>
</svg>
